<svg xmlns="http://www.w3.org/2000/svg" xmlns:xlink="http://www.w3.org/1999/xlink" contentStyleType="text/css" data-diagram-type="CLASS" height="514px" preserveAspectRatio="none" style="width:1544px;height:514px;background:#003153;" version="1.1" viewBox="0 0 1544 514" width="1544px" zoomAndPan="magnify"><title>Class Diagram for Login Functionality</title><defs/><g><rect fill="#003153" height="514" style="stroke:transparent;stroke-width:1;" width="1544" x="0" y="0"/><text fill="#D9D3D0" font-family="Verdana" font-size="22" font-weight="bold" lengthAdjust="spacing" textLength="467.0059" x="533.9971" y="35.4209">Class Diagram for Login Functionality</text><!--cluster datarecords--><g id="cluster_datarecords"><rect fill="#003153" height="129" rx="2.5" ry="2.5" style="stroke:#D9D3D0;stroke-width:1;" width="185" x="685.5" y="244.6094"/><text fill="#D9D3D0" font-family="Verdana" font-size="14" font-weight="bold" lengthAdjust="spacing" textLength="95.1836" x="730.4082" y="259.6045">datarecords</text></g><!--cluster businesslogic_api--><g id="cluster_businesslogic_api"><rect fill="#003153" height="111" rx="2.5" ry="2.5" style="stroke:#D9D3D0;stroke-width:1;" width="394" x="581" y="397.6094"/><text fill="#D9D3D0" font-family="Verdana" font-size="14" font-weight="bold" lengthAdjust="spacing" textLength="138.0518" x="708.9741" y="412.6045">businesslogic_api</text></g><!--cluster businesslogic--><g id="cluster_businesslogic"><rect fill="#003153" height="129" rx="2.5" ry="2.5" style="stroke:#D9D3D0;stroke-width:1;" width="394" x="42" y="58.6094"/><text fill="#D9D3D0" font-family="Verdana" font-size="14" font-weight="bold" lengthAdjust="spacing" textLength="106.7842" x="185.6079" y="73.6045">businesslogic</text></g><!--cluster persistence_api--><g id="cluster_persistence_api"><rect fill="#003153" height="111" rx="2.5" ry="2.5" style="stroke:#D9D3D0;stroke-width:1;" width="448" x="1090" y="96.6094"/><text fill="#D9D3D0" font-family="Verdana" font-size="14" font-weight="bold" lengthAdjust="spacing" textLength="123.1016" x="1252.4492" y="111.6045">persistence_api</text></g><!--cluster persistence--><g id="cluster_persistence"><rect fill="#003153" height="129" rx="2.5" ry="2.5" style="stroke:#D9D3D0;stroke-width:1;" width="448" x="554" y="91.6094"/><text fill="#D9D3D0" font-family="Verdana" font-size="14" font-weight="bold" lengthAdjust="spacing" textLength="91.834" x="732.083" y="106.6045">persistence</text></g><!--cluster restapi--><g id="cluster_restapi"><rect fill="#003153" height="129" rx="2.5" ry="2.5" style="stroke:#D9D3D0;stroke-width:1;" width="454" x="12" y="278.6094"/><text fill="#D9D3D0" font-family="Verdana" font-size="14" font-weight="bold" lengthAdjust="spacing" textLength="55.6924" x="211.1538" y="293.6045">restapi</text></g><!--class LoginRequest--><g id="elem_LoginRequest"><rect codeLine="20" fill="#003153" height="76.5938" id="LoginRequest" rx="2.5" ry="2.5" style="stroke:#D9D3D0;stroke-width:1;" width="153.3906" x="701.5" y="280.1094"/><ellipse cx="727.9455" cy="294.1094" fill="#003153" rx="9" ry="9" style="stroke:#D9D3D0;stroke-width:1;"/><path d="M730.9143,299.75 Q730.3361,300.0469 729.6955,300.1875 Q729.0549,300.3438 728.3518,300.3438 Q725.8518,300.3438 724.5236,298.7031 Q723.2111,297.0469 723.2111,293.9219 Q723.2111,290.7969 724.5236,289.1406 Q725.8518,287.4844 728.3518,287.4844 Q729.0549,287.4844 729.6955,287.6406 Q730.3518,287.7969 730.9143,288.0938 L730.9143,290.8125 Q730.2893,290.2344 729.6955,289.9688 Q729.1018,289.6875 728.4768,289.6875 Q727.133,289.6875 726.4455,290.7656 Q725.758,291.8281 725.758,293.9219 Q725.758,296.0156 726.4455,297.0938 Q727.133,298.1563 728.4768,298.1563 Q729.1018,298.1563 729.6955,297.8906 Q730.2893,297.6094 730.9143,297.0313 L730.9143,299.75 Z " fill="#D9D3D0"/><text fill="#D9D3D0" font-family="Verdana" font-size="14" lengthAdjust="spacing" textLength="95.5117" x="742.9334" y="298.9561">LoginRequest</text><line style="stroke:#D9D3D0;stroke-width:1;" x1="702.5" x2="853.8906" y1="308.1094" y2="308.1094"/><ellipse cx="712.5" cy="321.7578" fill="transparent" rx="3" ry="3" style="stroke:#D9D3D0;stroke-width:1;"/><text fill="#D9D3D0" font-family="Verdana" font-size="14" lengthAdjust="spacing" textLength="101.2881" x="719.5" y="325.1045">+email: String</text><ellipse cx="712.5" cy="338.0547" fill="transparent" rx="3" ry="3" style="stroke:#D9D3D0;stroke-width:1;"/><text fill="#D9D3D0" font-family="Verdana" font-size="14" lengthAdjust="spacing" textLength="129.3906" x="719.5" y="341.4014">+password: String</text><line style="stroke:#D9D3D0;stroke-width:1;" x1="702.5" x2="853.8906" y1="348.7031" y2="348.7031"/></g><!--class LoginService--><g id="elem_LoginService"><rect codeLine="30" fill="#003153" height="60.2969" id="LoginService" rx="2.5" ry="2.5" style="stroke:#D9D3D0;stroke-width:1;" width="362.0166" x="597" y="432.6094"/><ellipse cx="729.3804" cy="446.6094" fill="#003153" rx="9" ry="9" style="stroke:#D9D3D0;stroke-width:1;"/><path d="M725.3022,442.375 L725.3022,440.2188 L732.6929,440.2188 L732.6929,442.375 L730.2241,442.375 L730.2241,450.4531 L732.6929,450.4531 L732.6929,452.6094 L725.3022,452.6094 L725.3022,450.4531 L727.771,450.4531 L727.771,442.375 L725.3022,442.375 Z " fill="#D9D3D0"/><text fill="#D9D3D0" font-family="Verdana" font-size="14" font-style="italic" lengthAdjust="spacing" textLength="89.7559" x="746.8804" y="451.4561">LoginService</text><line style="stroke:#D9D3D0;stroke-width:1;" x1="598" x2="958.0166" y1="460.6094" y2="460.6094"/><line style="stroke:#D9D3D0;stroke-width:1;" x1="598" x2="958.0166" y1="468.6094" y2="468.6094"/><ellipse cx="608" cy="482.2578" fill="#003153" rx="3" ry="3" style="stroke:#D9D3D0;stroke-width:1;"/><text fill="#D9D3D0" font-family="Verdana" font-size="14" lengthAdjust="spacing" textLength="338.0166" x="615" y="485.6045">+login(email: String, password: String): boolean</text></g><!--class LoginServiceImpl--><g id="elem_LoginServiceImpl"><rect codeLine="39" fill="#003153" height="76.5938" id="LoginServiceImpl" rx="2.5" ry="2.5" style="stroke:#D9D3D0;stroke-width:1;" width="362.0166" x="58" y="94.1094"/><ellipse cx="175.1089" cy="108.1094" fill="#003153" rx="9" ry="9" style="stroke:#D9D3D0;stroke-width:1;"/><path d="M178.0776,113.75 Q177.4995,114.0469 176.8589,114.1875 Q176.2183,114.3438 175.5151,114.3438 Q173.0151,114.3438 171.687,112.7031 Q170.3745,111.0469 170.3745,107.9219 Q170.3745,104.7969 171.687,103.1406 Q173.0151,101.4844 175.5151,101.4844 Q176.2183,101.4844 176.8589,101.6406 Q177.5151,101.7969 178.0776,102.0938 L178.0776,104.8125 Q177.4526,104.2344 176.8589,103.9688 Q176.2651,103.6875 175.6401,103.6875 Q174.2964,103.6875 173.6089,104.7656 Q172.9214,105.8281 172.9214,107.9219 Q172.9214,110.0156 173.6089,111.0938 Q174.2964,112.1563 175.6401,112.1563 Q176.2651,112.1563 176.8589,111.8906 Q177.4526,111.6094 178.0776,111.0313 L178.0776,113.75 Z " fill="#D9D3D0"/><text fill="#D9D3D0" font-family="Verdana" font-size="14" lengthAdjust="spacing" textLength="120.2988" x="192.6089" y="112.9561">LoginServiceImpl</text><line style="stroke:#D9D3D0;stroke-width:1;" x1="59" x2="419.0166" y1="122.1094" y2="122.1094"/><rect fill="transparent" height="6" style="stroke:#D9D3D0;stroke-width:1;" width="6" x="66" y="132.7578"/><text fill="#D9D3D0" font-family="Verdana" font-size="14" lengthAdjust="spacing" textLength="222.0928" x="76" y="139.1045">-UserRepository userRepository</text><line style="stroke:#D9D3D0;stroke-width:1;" x1="59" x2="419.0166" y1="146.4063" y2="146.4063"/><ellipse cx="69" cy="160.0547" fill="#003153" rx="3" ry="3" style="stroke:#D9D3D0;stroke-width:1;"/><text fill="#D9D3D0" font-family="Verdana" font-size="14" lengthAdjust="spacing" textLength="338.0166" x="76" y="163.4014">+login(email: String, password: String): boolean</text></g><!--class UserRepository--><g id="elem_UserRepository"><rect codeLine="49" fill="#003153" height="60.2969" id="UserRepository" rx="2.5" ry="2.5" style="stroke:#D9D3D0;stroke-width:1;" width="415.8018" x="1106" y="131.6094"/><ellipse cx="1256.6597" cy="145.6094" fill="#003153" rx="9" ry="9" style="stroke:#D9D3D0;stroke-width:1;"/><path d="M1252.5815,141.375 L1252.5815,139.2188 L1259.9722,139.2188 L1259.9722,141.375 L1257.5034,141.375 L1257.5034,149.4531 L1259.9722,149.4531 L1259.9722,151.6094 L1252.5815,151.6094 L1252.5815,149.4531 L1255.0503,149.4531 L1255.0503,141.375 L1252.5815,141.375 Z " fill="#D9D3D0"/><text fill="#D9D3D0" font-family="Verdana" font-size="14" font-style="italic" lengthAdjust="spacing" textLength="106.9824" x="1274.1597" y="150.4561">UserRepository</text><line style="stroke:#D9D3D0;stroke-width:1;" x1="1107" x2="1520.8018" y1="159.6094" y2="159.6094"/><line style="stroke:#D9D3D0;stroke-width:1;" x1="1107" x2="1520.8018" y1="167.6094" y2="167.6094"/><ellipse cx="1117" cy="181.2578" fill="#003153" rx="3" ry="3" style="stroke:#D9D3D0;stroke-width:1;"/><text fill="#D9D3D0" font-family="Verdana" font-size="14" lengthAdjust="spacing" textLength="391.8018" x="1124" y="184.6045">+getPasswordByEmail(email: String): Optional&lt;String&gt;</text></g><!--class UserRepositoryImpl--><g id="elem_UserRepositoryImpl"><rect codeLine="58" fill="#003153" height="76.5938" id="UserRepositoryImpl" rx="2.5" ry="2.5" style="stroke:#D9D3D0;stroke-width:1;" width="415.8018" x="570" y="127.1094"/><ellipse cx="705.3882" cy="141.1094" fill="#003153" rx="9" ry="9" style="stroke:#D9D3D0;stroke-width:1;"/><path d="M708.3569,146.75 Q707.7788,147.0469 707.1382,147.1875 Q706.4976,147.3438 705.7944,147.3438 Q703.2944,147.3438 701.9663,145.7031 Q700.6538,144.0469 700.6538,140.9219 Q700.6538,137.7969 701.9663,136.1406 Q703.2944,134.4844 705.7944,134.4844 Q706.4976,134.4844 707.1382,134.6406 Q707.7944,134.7969 708.3569,135.0938 L708.3569,137.8125 Q707.7319,137.2344 707.1382,136.9688 Q706.5444,136.6875 705.9194,136.6875 Q704.5757,136.6875 703.8882,137.7656 Q703.2007,138.8281 703.2007,140.9219 Q703.2007,143.0156 703.8882,144.0938 Q704.5757,145.1563 705.9194,145.1563 Q706.5444,145.1563 707.1382,144.8906 Q707.7319,144.6094 708.3569,144.0313 L708.3569,146.75 Z " fill="#D9D3D0"/><text fill="#D9D3D0" font-family="Verdana" font-size="14" lengthAdjust="spacing" textLength="137.5254" x="722.8882" y="145.9561">UserRepositoryImpl</text><line style="stroke:#D9D3D0;stroke-width:1;" x1="571" x2="984.8018" y1="155.1094" y2="155.1094"/><rect fill="transparent" height="6" style="stroke:#D9D3D0;stroke-width:1;" width="6" x="578" y="165.7578"/><text fill="#D9D3D0" font-family="Verdana" font-size="14" lengthAdjust="spacing" textLength="109.0947" x="588" y="172.1045">-DataSource db</text><line style="stroke:#D9D3D0;stroke-width:1;" x1="571" x2="984.8018" y1="179.4063" y2="179.4063"/><ellipse cx="581" cy="193.0547" fill="#003153" rx="3" ry="3" style="stroke:#D9D3D0;stroke-width:1;"/><text fill="#D9D3D0" font-family="Verdana" font-size="14" lengthAdjust="spacing" textLength="391.8018" x="588" y="196.4014">+getPasswordByEmail(email: String): Optional&lt;String&gt;</text></g><!--class AuthController--><g id="elem_AuthController"><rect codeLine="68" fill="#003153" height="76.5938" id="AuthController" rx="2.5" ry="2.5" style="stroke:#D9D3D0;stroke-width:1;" width="422.1113" x="28" y="314.1094"/><ellipse cx="184.313" cy="328.1094" fill="#003153" rx="9" ry="9" style="stroke:#D9D3D0;stroke-width:1;"/><path d="M187.2817,333.75 Q186.7036,334.0469 186.063,334.1875 Q185.4224,334.3438 184.7192,334.3438 Q182.2192,334.3438 180.8911,332.7031 Q179.5786,331.0469 179.5786,327.9219 Q179.5786,324.7969 180.8911,323.1406 Q182.2192,321.4844 184.7192,321.4844 Q185.4224,321.4844 186.063,321.6406 Q186.7192,321.7969 187.2817,322.0938 L187.2817,324.8125 Q186.6567,324.2344 186.063,323.9688 Q185.4692,323.6875 184.8442,323.6875 Q183.5005,323.6875 182.813,324.7656 Q182.1255,325.8281 182.1255,327.9219 Q182.1255,330.0156 182.813,331.0938 Q183.5005,332.1563 184.8442,332.1563 Q185.4692,332.1563 186.063,331.8906 Q186.6567,331.6094 187.2817,331.0313 L187.2817,333.75 Z " fill="#D9D3D0"/><text fill="#D9D3D0" font-family="Verdana" font-size="14" lengthAdjust="spacing" textLength="101.9854" x="201.813" y="332.9561">AuthController</text><line style="stroke:#D9D3D0;stroke-width:1;" x1="29" x2="449.1113" y1="342.1094" y2="342.1094"/><rect fill="transparent" height="6" style="stroke:#D9D3D0;stroke-width:1;" width="6" x="36" y="352.7578"/><text fill="#D9D3D0" font-family="Verdana" font-size="14" lengthAdjust="spacing" textLength="185.1035" x="46" y="359.1045">-LoginService loginService</text><line style="stroke:#D9D3D0;stroke-width:1;" x1="29" x2="449.1113" y1="366.4063" y2="366.4063"/><ellipse cx="39" cy="380.0547" fill="#003153" rx="3" ry="3" style="stroke:#D9D3D0;stroke-width:1;"/><text fill="#D9D3D0" font-family="Verdana" font-size="14" lengthAdjust="spacing" textLength="398.1113" x="46" y="383.4014">+login(request: LoginRequest): ResponseEntity&lt;String&gt;</text></g><!--link LoginServiceImpl to UserRepository--><g id="link_LoginServiceImpl_UserRepository"><path codeLine="77" d="M420.14,110.6094 C726.51,110.6094 1314,110.6094 1314,110.6094 C1314,110.6094 1314,114.3694 1314,125.3494 " fill="transparent" id="LoginServiceImpl-to-UserRepository" style="stroke:#D9D3D0;stroke-width:1;"/><polygon fill="#D9D3D0" points="1314,131.3494,1318,122.3494,1314,126.3494,1310,122.3494,1314,131.3494" style="stroke:#D9D3D0;stroke-width:1;"/></g><!--link UserRepositoryImpl to UserRepository--><g id="link_UserRepositoryImpl_UserRepository"><path codeLine="78" d="M986.38,161.6094 C1025.65,161.6094 1060.71,161.6094 1099.96,161.6094 " fill="transparent" id="UserRepositoryImpl-to-UserRepository" style="stroke:#D9D3D0;stroke-width:1;"/><polygon fill="#D9D3D0" points="1105.96,161.6094,1096.96,157.6094,1100.96,161.6094,1096.96,165.6094,1105.96,161.6094" style="stroke:#D9D3D0;stroke-width:1;"/></g><!--link AuthController to LoginService--><g id="link_AuthController_LoginService"><path codeLine="83" d="M450.22,374.1094 C551.03,374.1094 650,374.1094 650,374.1094 C650,374.1094 650,400.5494 650,426.1494 " fill="transparent" id="AuthController-to-LoginService" style="stroke:#D9D3D0;stroke-width:1;"/><polygon fill="#D9D3D0" points="650,432.1494,654,423.1494,650,427.1494,646,423.1494,650,432.1494" style="stroke:#D9D3D0;stroke-width:1;"/></g><!--link AuthController to LoginRequest--><g id="link_AuthController_LoginRequest"><path codeLine="84" d="M450.09,335.6094 C538.62,335.6094 629.98,335.6094 695.43,335.6094 " fill="transparent" id="AuthController-to-LoginRequest" style="stroke:#D9D3D0;stroke-width:1;"/><polygon fill="#D9D3D0" points="701.43,335.6094,692.43,331.6094,696.43,335.6094,692.43,339.6094,701.43,335.6094" style="stroke:#D9D3D0;stroke-width:1;"/></g><!--link LoginServiceImpl to UserRepositoryImpl--><g id="link_LoginServiceImpl_UserRepositoryImpl"><path codeLine="85" d="M420.35,149.1094 C468.35,149.1094 514.54,149.1094 563.84,149.1094 " fill="transparent" id="LoginServiceImpl-to-UserRepositoryImpl" style="stroke:#D9D3D0;stroke-width:1;"/><polygon fill="#D9D3D0" points="569.84,149.1094,560.84,145.1094,564.84,149.1094,560.84,153.1094,569.84,149.1094" style="stroke:#D9D3D0;stroke-width:1;"/></g><!--SRC=[nPLHYzGm4CVV-od6Ur4v5qx1bqKEpjiJ3XIFNNoMsNQs3PjDOYRrA7BVtKbReMbNkQrovgcToIJpc_adUHOgEX1iTKtEAnEoZFVAEFHu0AqCXSOHM1ygcsdQ1GWMl2gh08Nob0TbpJ22AopilJ8bx50p3JmEypsMj0cD9eYHQ4fDMVOSRatk2Pc0PKuCHMzhK_oAuC4YnXR4vE3jnS3eqUoZyVMRY-b-dz2Noe2uig22R7sjaHbM2iiuQsSzVBHnneVQj3IeLMXYMei_3vbnrssnX0832fBr1JyYiCyCpWPXPu0yN0P-P20ZRvDj4rpJjveuz8uupk6S3gZq4ZP1EbSE7KxYxcMXnFUGFPm8jgrP9C2i9OFyApfr2juak8MSM7iYaHxv7URKuMx8VrVoa-366FCYWNu5OzINahQrcj3y2-ZPm5FOQKzxoDk3qmFG1Io-CFarESigMDz0dVm-VKKSULOSoEHqgWX6eMrLHhQ904RqYGHA2dSztllc9dAdzCBwsNNd-5rdkVnxw9d0OzX402daL08hkGmsjlOILcp_JmMyt3SdjhiFQSdxxuJwgWxLjJN1Mwt9fyJ9kTU3dwdWVNSPBfEhKS3NnCuQfXiZbtqp0_zeGM9pv8qq0MDP6UnEtgnUh3nhpSdfNomkHuh8ZWZaoAoPI2joP0eHfI86bCSsoatAfpl4IhbvOAF-neI7hB_rzoryJ66Y-IS0]--></g></svg>